<mxfile host="app.diagrams.net" modified="2021-12-04T16:46:40.519Z" agent="5.0 (Windows NT 10.0; WOW64) AppleWebKit/537.36 (KHTML, like Gecko) Chrome/96.0.4664.45 Safari/537.36" etag="Ab5vCAroSO1UgNQbKGNw" version="15.8.7" type="github">
  <diagram name="Page-1" id="58cdce13-f638-feb5-8d6f-7d28b1aa9fa0">
    <mxGraphModel dx="1422" dy="705" grid="1" gridSize="10" guides="1" tooltips="1" connect="1" arrows="1" fold="1" page="1" pageScale="1" pageWidth="1100" pageHeight="850" background="none" math="0" shadow="0">
      <root>
        <mxCell id="0" />
        <mxCell id="1" parent="0" />
        <mxCell id="iJvsXhj-GuQYThcIoyag-1" value="NhanSu" style="swimlane;fontStyle=3;align=center;verticalAlign=top;childLayout=stackLayout;horizontal=1;startSize=26;horizontalStack=0;resizeParent=1;resizeParentMax=0;resizeLast=0;collapsible=1;marginBottom=0;" vertex="1" parent="1">
          <mxGeometry x="460" y="10" width="190" height="200" as="geometry" />
        </mxCell>
        <mxCell id="iJvsXhj-GuQYThcIoyag-2" value="+ HoTen : string&#xa;+ NamSinh : string&#xa;+ MaSo : string" style="text;strokeColor=none;fillColor=none;align=left;verticalAlign=top;spacingLeft=4;spacingRight=4;overflow=hidden;rotatable=0;points=[[0,0.5],[1,0.5]];portConstraint=eastwest;" vertex="1" parent="iJvsXhj-GuQYThcIoyag-1">
          <mxGeometry y="26" width="190" height="54" as="geometry" />
        </mxCell>
        <mxCell id="iJvsXhj-GuQYThcIoyag-3" value="" style="line;strokeWidth=1;fillColor=none;align=left;verticalAlign=middle;spacingTop=-1;spacingLeft=3;spacingRight=3;rotatable=0;labelPosition=right;points=[];portConstraint=eastwest;" vertex="1" parent="iJvsXhj-GuQYThcIoyag-1">
          <mxGeometry y="80" width="190" height="8" as="geometry" />
        </mxCell>
        <mxCell id="iJvsXhj-GuQYThcIoyag-4" value="+ NhanSu(string , string , string );&#xa;+ NhanSu(const NhanSu&amp; gv);&#xa;+ NhanSu();&#xa;+ ~NhanSu();&#xa;+ NhapNhanSu() : virtual void&#xa;+ XuatNhanSu() : virtual void&#xa;+ LuongNV() = 0 : virtual float" style="text;strokeColor=none;fillColor=none;align=left;verticalAlign=top;spacingLeft=4;spacingRight=4;overflow=hidden;rotatable=0;points=[[0,0.5],[1,0.5]];portConstraint=eastwest;" vertex="1" parent="iJvsXhj-GuQYThcIoyag-1">
          <mxGeometry y="88" width="190" height="112" as="geometry" />
        </mxCell>
        <mxCell id="iJvsXhj-GuQYThcIoyag-5" value="GiangVien" style="swimlane;fontStyle=1;align=center;verticalAlign=top;childLayout=stackLayout;horizontal=1;startSize=26;horizontalStack=0;resizeParent=1;resizeParentMax=0;resizeLast=0;collapsible=1;marginBottom=0;" vertex="1" parent="1">
          <mxGeometry y="290" width="190" height="240" as="geometry" />
        </mxCell>
        <mxCell id="iJvsXhj-GuQYThcIoyag-6" value="+ HocHam : string&#xa;+ HocVi : string&#xa;+ ThamNien : int&#xa;+ Mon int&#xa;	vector&lt;string&gt;List" style="text;strokeColor=none;fillColor=none;align=left;verticalAlign=top;spacingLeft=4;spacingRight=4;overflow=hidden;rotatable=0;points=[[0,0.5],[1,0.5]];portConstraint=eastwest;" vertex="1" parent="iJvsXhj-GuQYThcIoyag-5">
          <mxGeometry y="26" width="190" height="84" as="geometry" />
        </mxCell>
        <mxCell id="iJvsXhj-GuQYThcIoyag-7" value="" style="line;strokeWidth=1;fillColor=none;align=left;verticalAlign=middle;spacingTop=-1;spacingLeft=3;spacingRight=3;rotatable=0;labelPosition=right;points=[];portConstraint=eastwest;" vertex="1" parent="iJvsXhj-GuQYThcIoyag-5">
          <mxGeometry y="110" width="190" height="8" as="geometry" />
        </mxCell>
        <mxCell id="iJvsXhj-GuQYThcIoyag-8" value="+ GiangVien()&#xa;+ GiangVien(string , string , string &#xa;, string , string , int , int , string );&#xa;+ GiangVien(const GiangVien&amp; gv);&#xa;+ ~GiangVien();&#xa;+ LuongNV() : float&#xa;+ NhapNhanSu() : void&#xa;+ XuatNhanSu() : void" style="text;strokeColor=none;fillColor=none;align=left;verticalAlign=top;spacingLeft=4;spacingRight=4;overflow=hidden;rotatable=0;points=[[0,0.5],[1,0.5]];portConstraint=eastwest;" vertex="1" parent="iJvsXhj-GuQYThcIoyag-5">
          <mxGeometry y="118" width="190" height="122" as="geometry" />
        </mxCell>
        <mxCell id="iJvsXhj-GuQYThcIoyag-9" value="TroGiang" style="swimlane;fontStyle=1;align=center;verticalAlign=top;childLayout=stackLayout;horizontal=1;startSize=26;horizontalStack=0;resizeParent=1;resizeParentMax=0;resizeLast=0;collapsible=1;marginBottom=0;" vertex="1" parent="1">
          <mxGeometry x="910" y="320" width="190" height="180" as="geometry" />
        </mxCell>
        <mxCell id="iJvsXhj-GuQYThcIoyag-10" value="+ MonTroGiang : int" style="text;strokeColor=none;fillColor=none;align=left;verticalAlign=top;spacingLeft=4;spacingRight=4;overflow=hidden;rotatable=0;points=[[0,0.5],[1,0.5]];portConstraint=eastwest;" vertex="1" parent="iJvsXhj-GuQYThcIoyag-9">
          <mxGeometry y="26" width="190" height="24" as="geometry" />
        </mxCell>
        <mxCell id="iJvsXhj-GuQYThcIoyag-11" value="" style="line;strokeWidth=1;fillColor=none;align=left;verticalAlign=middle;spacingTop=-1;spacingLeft=3;spacingRight=3;rotatable=0;labelPosition=right;points=[];portConstraint=eastwest;" vertex="1" parent="iJvsXhj-GuQYThcIoyag-9">
          <mxGeometry y="50" width="190" height="8" as="geometry" />
        </mxCell>
        <mxCell id="iJvsXhj-GuQYThcIoyag-12" value="+ TroGiang();&#xa;+ TroGiang(string,string,string,int );&#xa;+ TroGiang(const TroGiang&amp; gv);&#xa;+ ~TroGiang();&#xa;+ LuongNV() : float&#xa;+  NhapNhanSu() : void&#xa;+  XuatNhanSu() : void" style="text;strokeColor=none;fillColor=none;align=left;verticalAlign=top;spacingLeft=4;spacingRight=4;overflow=hidden;rotatable=0;points=[[0,0.5],[1,0.5]];portConstraint=eastwest;" vertex="1" parent="iJvsXhj-GuQYThcIoyag-9">
          <mxGeometry y="58" width="190" height="122" as="geometry" />
        </mxCell>
        <mxCell id="iJvsXhj-GuQYThcIoyag-13" value="NghienCuuVien" style="swimlane;fontStyle=1;align=center;verticalAlign=top;childLayout=stackLayout;horizontal=1;startSize=26;horizontalStack=0;resizeParent=1;resizeParentMax=0;resizeLast=0;collapsible=1;marginBottom=0;" vertex="1" parent="1">
          <mxGeometry x="200" y="306" width="240" height="208" as="geometry" />
        </mxCell>
        <mxCell id="iJvsXhj-GuQYThcIoyag-14" value="+ KinhNghiemNC : int&#xa;	vector&lt;string&gt; ListNC;" style="text;strokeColor=none;fillColor=none;align=left;verticalAlign=top;spacingLeft=4;spacingRight=4;overflow=hidden;rotatable=0;points=[[0,0.5],[1,0.5]];portConstraint=eastwest;" vertex="1" parent="iJvsXhj-GuQYThcIoyag-13">
          <mxGeometry y="26" width="240" height="34" as="geometry" />
        </mxCell>
        <mxCell id="iJvsXhj-GuQYThcIoyag-15" value="" style="line;strokeWidth=1;fillColor=none;align=left;verticalAlign=middle;spacingTop=-1;spacingLeft=3;spacingRight=3;rotatable=0;labelPosition=right;points=[];portConstraint=eastwest;" vertex="1" parent="iJvsXhj-GuQYThcIoyag-13">
          <mxGeometry y="60" width="240" height="8" as="geometry" />
        </mxCell>
        <mxCell id="iJvsXhj-GuQYThcIoyag-16" value="+ ListNghienCuu() : void&#xa;+ NghienCuuVien()&#xa;+ NghienCuuVien(string, string , string , int );&#xa;+ NghienCuuVien(const NghienCuuVien&amp; gv);&#xa;+ ~NghienCuuVien();&#xa;+ SoMonNC() : int&#xa;+ LuongNV() : float&#xa; + NhapNhanSu() : void&#xa;+  XuatNhanSu() : void" style="text;strokeColor=none;fillColor=none;align=left;verticalAlign=top;spacingLeft=4;spacingRight=4;overflow=hidden;rotatable=0;points=[[0,0.5],[1,0.5]];portConstraint=eastwest;" vertex="1" parent="iJvsXhj-GuQYThcIoyag-13">
          <mxGeometry y="68" width="240" height="140" as="geometry" />
        </mxCell>
        <mxCell id="iJvsXhj-GuQYThcIoyag-17" value="ChuyenVien" style="swimlane;fontStyle=1;align=center;verticalAlign=top;childLayout=stackLayout;horizontal=1;startSize=26;horizontalStack=0;resizeParent=1;resizeParentMax=0;resizeLast=0;collapsible=1;marginBottom=0;" vertex="1" parent="1">
          <mxGeometry x="680" y="306" width="220" height="208" as="geometry" />
        </mxCell>
        <mxCell id="iJvsXhj-GuQYThcIoyag-18" value="+ KinhNghiemLV : int&#xa;	vector&lt;string&gt; ListGD;" style="text;strokeColor=none;fillColor=none;align=left;verticalAlign=top;spacingLeft=4;spacingRight=4;overflow=hidden;rotatable=0;points=[[0,0.5],[1,0.5]];portConstraint=eastwest;" vertex="1" parent="iJvsXhj-GuQYThcIoyag-17">
          <mxGeometry y="26" width="220" height="34" as="geometry" />
        </mxCell>
        <mxCell id="iJvsXhj-GuQYThcIoyag-19" value="" style="line;strokeWidth=1;fillColor=none;align=left;verticalAlign=middle;spacingTop=-1;spacingLeft=3;spacingRight=3;rotatable=0;labelPosition=right;points=[];portConstraint=eastwest;" vertex="1" parent="iJvsXhj-GuQYThcIoyag-17">
          <mxGeometry y="60" width="220" height="8" as="geometry" />
        </mxCell>
        <mxCell id="iJvsXhj-GuQYThcIoyag-20" value="+ ListGiaoDuc() : void&#xa;+ ChuyenVien()&#xa;+ ChuyenVien(string, string , string , int );&#xa;+ ChuyenVien(const ChuyenVien&amp; gv);&#xa;+ ~ChuyenVien();&#xa;+ SoMonLV() : int&#xa;+ LuongNV() : float&#xa; + NhapNhanSu() : void&#xa;+  XuatNhanSu() : void" style="text;strokeColor=none;fillColor=none;align=left;verticalAlign=top;spacingLeft=4;spacingRight=4;overflow=hidden;rotatable=0;points=[[0,0.5],[1,0.5]];portConstraint=eastwest;" vertex="1" parent="iJvsXhj-GuQYThcIoyag-17">
          <mxGeometry y="68" width="220" height="140" as="geometry" />
        </mxCell>
        <mxCell id="iJvsXhj-GuQYThcIoyag-21" value="ThucTapSinh" style="swimlane;fontStyle=1;align=center;verticalAlign=top;childLayout=stackLayout;horizontal=1;startSize=26;horizontalStack=0;resizeParent=1;resizeParentMax=0;resizeLast=0;collapsible=1;marginBottom=0;" vertex="1" parent="1">
          <mxGeometry x="450" y="306" width="220" height="208" as="geometry" />
        </mxCell>
        <mxCell id="iJvsXhj-GuQYThcIoyag-22" value="+ KinhNghiemLV : int&#xa;+vector&lt;string&gt; ListDADB" style="text;strokeColor=none;fillColor=none;align=left;verticalAlign=top;spacingLeft=4;spacingRight=4;overflow=hidden;rotatable=0;points=[[0,0.5],[1,0.5]];portConstraint=eastwest;" vertex="1" parent="iJvsXhj-GuQYThcIoyag-21">
          <mxGeometry y="26" width="220" height="34" as="geometry" />
        </mxCell>
        <mxCell id="iJvsXhj-GuQYThcIoyag-23" value="" style="line;strokeWidth=1;fillColor=none;align=left;verticalAlign=middle;spacingTop=-1;spacingLeft=3;spacingRight=3;rotatable=0;labelPosition=right;points=[];portConstraint=eastwest;" vertex="1" parent="iJvsXhj-GuQYThcIoyag-21">
          <mxGeometry y="60" width="220" height="8" as="geometry" />
        </mxCell>
        <mxCell id="iJvsXhj-GuQYThcIoyag-24" value="+ ThucTapSinh()&#xa;+ ThucTapSinh(const ThucTapSinh&amp; gv);&#xa;+ ThucTapSinh(const ThucTapSinh&amp; gv);&#xa;+ ~ThucTapSinh();&#xa;+ SoDoAnDuBi() : int&#xa;+ LuongNV() : float&#xa; + NhapNhanSu() : void&#xa;+  XuatNhanSu() : void" style="text;strokeColor=none;fillColor=none;align=left;verticalAlign=top;spacingLeft=4;spacingRight=4;overflow=hidden;rotatable=0;points=[[0,0.5],[1,0.5]];portConstraint=eastwest;" vertex="1" parent="iJvsXhj-GuQYThcIoyag-21">
          <mxGeometry y="68" width="220" height="140" as="geometry" />
        </mxCell>
        <mxCell id="iJvsXhj-GuQYThcIoyag-25" value="TruongDaiHoc" style="swimlane;fontStyle=1;align=center;verticalAlign=top;childLayout=stackLayout;horizontal=1;startSize=26;horizontalStack=0;resizeParent=1;resizeParentMax=0;resizeLast=0;collapsible=1;marginBottom=0;" vertex="1" parent="1">
          <mxGeometry x="430" y="650" width="240" height="140" as="geometry" />
        </mxCell>
        <mxCell id="iJvsXhj-GuQYThcIoyag-26" value="+ vector&lt;NhanSu*&gt;ListNhanSu" style="text;strokeColor=none;fillColor=none;align=left;verticalAlign=top;spacingLeft=4;spacingRight=4;overflow=hidden;rotatable=0;points=[[0,0.5],[1,0.5]];portConstraint=eastwest;" vertex="1" parent="iJvsXhj-GuQYThcIoyag-25">
          <mxGeometry y="26" width="240" height="24" as="geometry" />
        </mxCell>
        <mxCell id="iJvsXhj-GuQYThcIoyag-27" value="" style="line;strokeWidth=1;fillColor=none;align=left;verticalAlign=middle;spacingTop=-1;spacingLeft=3;spacingRight=3;rotatable=0;labelPosition=right;points=[];portConstraint=eastwest;" vertex="1" parent="iJvsXhj-GuQYThcIoyag-25">
          <mxGeometry y="50" width="240" height="8" as="geometry" />
        </mxCell>
        <mxCell id="iJvsXhj-GuQYThcIoyag-28" value="+ ~TruongDaiHoc()&#xa;+ MaxLuong() : void&#xa;+ TongLuongNV() : float&#xa; + NhapDanhSach()() : void&#xa;+  XuatDanhSach()() : void" style="text;strokeColor=none;fillColor=none;align=left;verticalAlign=top;spacingLeft=4;spacingRight=4;overflow=hidden;rotatable=0;points=[[0,0.5],[1,0.5]];portConstraint=eastwest;" vertex="1" parent="iJvsXhj-GuQYThcIoyag-25">
          <mxGeometry y="58" width="240" height="82" as="geometry" />
        </mxCell>
        <mxCell id="iJvsXhj-GuQYThcIoyag-36" value="Extends" style="endArrow=block;endSize=16;endFill=0;html=1;rounded=0;entryX=0.011;entryY=0.318;entryDx=0;entryDy=0;entryPerimeter=0;exitX=0.25;exitY=0;exitDx=0;exitDy=0;" edge="1" parent="1" source="iJvsXhj-GuQYThcIoyag-13" target="iJvsXhj-GuQYThcIoyag-4">
          <mxGeometry x="-0.0069" y="1" width="160" relative="1" as="geometry">
            <mxPoint x="300" y="440" as="sourcePoint" />
            <mxPoint x="460" y="440" as="targetPoint" />
            <mxPoint as="offset" />
          </mxGeometry>
        </mxCell>
        <mxCell id="iJvsXhj-GuQYThcIoyag-37" value="Extends" style="endArrow=block;endSize=16;endFill=0;html=1;rounded=0;entryX=-0.005;entryY=0.106;entryDx=0;entryDy=0;entryPerimeter=0;exitX=0.75;exitY=0;exitDx=0;exitDy=0;" edge="1" parent="1" source="iJvsXhj-GuQYThcIoyag-5" target="iJvsXhj-GuQYThcIoyag-4">
          <mxGeometry x="-0.0039" width="160" relative="1" as="geometry">
            <mxPoint x="260" y="288.02" as="sourcePoint" />
            <mxPoint x="422.09000000000015" y="227.99600000000012" as="targetPoint" />
            <mxPoint as="offset" />
            <Array as="points" />
          </mxGeometry>
        </mxCell>
        <mxCell id="iJvsXhj-GuQYThcIoyag-39" value="Extends" style="endArrow=block;endSize=16;endFill=0;html=1;rounded=0;entryX=1;entryY=0.28;entryDx=0;entryDy=0;entryPerimeter=0;exitX=0.25;exitY=0;exitDx=0;exitDy=0;" edge="1" parent="1" source="iJvsXhj-GuQYThcIoyag-17" target="iJvsXhj-GuQYThcIoyag-4">
          <mxGeometry x="0.0817" y="-1" width="160" relative="1" as="geometry">
            <mxPoint x="820" y="400.02" as="sourcePoint" />
            <mxPoint x="982.0900000000001" y="339.9960000000001" as="targetPoint" />
            <mxPoint as="offset" />
          </mxGeometry>
        </mxCell>
        <mxCell id="iJvsXhj-GuQYThcIoyag-38" value="Extends" style="endArrow=block;endSize=16;endFill=0;html=1;rounded=0;entryX=0.237;entryY=1;entryDx=0;entryDy=0;entryPerimeter=0;exitX=0.25;exitY=0;exitDx=0;exitDy=0;" edge="1" parent="1" source="iJvsXhj-GuQYThcIoyag-21" target="iJvsXhj-GuQYThcIoyag-4">
          <mxGeometry x="-0.0417" width="160" relative="1" as="geometry">
            <mxPoint x="805" y="808.02" as="sourcePoint" />
            <mxPoint x="967.0900000000001" y="747.9960000000001" as="targetPoint" />
            <mxPoint as="offset" />
            <Array as="points" />
          </mxGeometry>
        </mxCell>
        <mxCell id="iJvsXhj-GuQYThcIoyag-40" value="Extends" style="endArrow=block;endSize=16;endFill=0;html=1;rounded=0;entryX=1.011;entryY=-0.03;entryDx=0;entryDy=0;entryPerimeter=0;exitX=0.25;exitY=0;exitDx=0;exitDy=0;" edge="1" parent="1" source="iJvsXhj-GuQYThcIoyag-9" target="iJvsXhj-GuQYThcIoyag-4">
          <mxGeometry x="0.0432" y="-3" width="160" relative="1" as="geometry">
            <mxPoint x="950" y="420.02" as="sourcePoint" />
            <mxPoint x="730" y="580" as="targetPoint" />
            <mxPoint as="offset" />
          </mxGeometry>
        </mxCell>
        <mxCell id="iJvsXhj-GuQYThcIoyag-41" value="" style="endArrow=diamondThin;endFill=0;endSize=24;html=1;rounded=0;exitX=0.553;exitY=1.033;exitDx=0;exitDy=0;exitPerimeter=0;entryX=0;entryY=0.5;entryDx=0;entryDy=0;" edge="1" parent="1" source="iJvsXhj-GuQYThcIoyag-8" target="iJvsXhj-GuQYThcIoyag-28">
          <mxGeometry width="160" relative="1" as="geometry">
            <mxPoint x="450" y="630" as="sourcePoint" />
            <mxPoint x="610" y="630" as="targetPoint" />
          </mxGeometry>
        </mxCell>
        <mxCell id="iJvsXhj-GuQYThcIoyag-42" value="" style="endArrow=diamondThin;endFill=0;endSize=24;html=1;rounded=0;entryX=1;entryY=0.5;entryDx=0;entryDy=0;exitX=0.453;exitY=1.025;exitDx=0;exitDy=0;exitPerimeter=0;" edge="1" parent="1" source="iJvsXhj-GuQYThcIoyag-12" target="iJvsXhj-GuQYThcIoyag-28">
          <mxGeometry width="160" relative="1" as="geometry">
            <mxPoint x="450" y="630" as="sourcePoint" />
            <mxPoint x="610" y="630" as="targetPoint" />
          </mxGeometry>
        </mxCell>
        <mxCell id="iJvsXhj-GuQYThcIoyag-43" value="" style="endArrow=diamondThin;endFill=0;endSize=24;html=1;rounded=0;exitX=0.486;exitY=1.021;exitDx=0;exitDy=0;exitPerimeter=0;entryX=1;entryY=0.5;entryDx=0;entryDy=0;" edge="1" parent="1" source="iJvsXhj-GuQYThcIoyag-20" target="iJvsXhj-GuQYThcIoyag-26">
          <mxGeometry width="160" relative="1" as="geometry">
            <mxPoint x="450" y="630" as="sourcePoint" />
            <mxPoint x="610" y="630" as="targetPoint" />
          </mxGeometry>
        </mxCell>
        <mxCell id="iJvsXhj-GuQYThcIoyag-44" value="" style="endArrow=diamondThin;endFill=0;endSize=24;html=1;rounded=0;exitX=0.45;exitY=1.029;exitDx=0;exitDy=0;exitPerimeter=0;entryX=0.5;entryY=0;entryDx=0;entryDy=0;" edge="1" parent="1" source="iJvsXhj-GuQYThcIoyag-24" target="iJvsXhj-GuQYThcIoyag-25">
          <mxGeometry width="160" relative="1" as="geometry">
            <mxPoint x="450" y="630" as="sourcePoint" />
            <mxPoint x="610" y="630" as="targetPoint" />
          </mxGeometry>
        </mxCell>
        <mxCell id="iJvsXhj-GuQYThcIoyag-45" value="" style="endArrow=diamondThin;endFill=0;endSize=24;html=1;rounded=0;exitX=0.346;exitY=1.036;exitDx=0;exitDy=0;exitPerimeter=0;entryX=0;entryY=0.5;entryDx=0;entryDy=0;" edge="1" parent="1" source="iJvsXhj-GuQYThcIoyag-16" target="iJvsXhj-GuQYThcIoyag-26">
          <mxGeometry width="160" relative="1" as="geometry">
            <mxPoint x="450" y="630" as="sourcePoint" />
            <mxPoint x="610" y="630" as="targetPoint" />
          </mxGeometry>
        </mxCell>
      </root>
    </mxGraphModel>
  </diagram>
</mxfile>
